<svg xmlns="http://www.w3.org/2000/svg" viewBox="0 0 380 600" role="img" aria-labelledby="map-title map-description" xmlns:c2pa="http://c2pa.org/manifest"><metadata><c2pa:manifest>AAAWgmp1bWIAAAAeanVtZGMycGEAEQAQgAAAqgA4m3EDYzJwYQAAABZcanVtYgAAAEdqdW1kYzJtYQARABCAAACqADibcQN1cm46YzJwYTpkYzM3ZGM1MS01NGNmLTQ3NzctYjlkOC0wOTAxODhmNzQ0NmYAAAADl2p1bWIAAAApanVtZGMyYXMAEQAQgAAAqgA4m3EDYzJwYS5hc3NlcnRpb25zAAAAALxqdW1iAAAARGp1bWRjYm9yABEAEIAAAKoAOJtxE2MycGEuaW5ncmVkaWVudC52MwAAAAAYYzJzaBB362POhhsAatuP3h9DbPUAAABwY2JvcqNpZGM6Zm9ybWF0bWltYWdlL3N2Zyt4bWxqaW5zdGFuY2VJRHgseG1wOmlpZDo0Y2Y2NGUzNy1jMzFjLTQ1OTUtOTU4Ni05MmQ3ZTdmYjlkZmZscmVsYXRpb25zaGlwaHBhcmVudE9mAAAB4mp1bWIAAABBanVtZGNib3IAEQAQgAAAqgA4m3ETYzJwYS5hY3Rpb25zLnYyAAAAABhjMnNog32Nre2CYYXj5R6YvaSVYAAAAZljYm9yomdhY3Rpb25zgqJmYWN0aW9ua2MycGEub3BlbmVkanBhcmFtZXRlcnOha2luZ3JlZGllbnRzgaJjdXJseC1zZWxmI2p1bWJmPWMycGEuYXNzZXJ0aW9ucy9jMnBhLmluZ3JlZGllbnQudjNkaGFzaFgg4WP3ecnPIgLLmOyJE6PLBKhiKq1fBZkjrMrzO6OcGXOkZmFjdGlvbngdY29tLmFudGhyb3BpYy5jbGF1ZGUucHJvdmlkZWRqcGFyYW1ldGVyc6F4H2NvbS5hbnRocm9waWMub3JpZ2luLWNvbmZpZGVuY2VndW5rbm93bmtkZXNjcmlwdGlvbnhmQ2xhdWRlIHByb3ZpZGVkIHRoaXMgZmlsZSBhdCB0aGUgcmVxdWVzdCBvZiBhIHVzZXIgYW5kIG1heSBoYXZlIGNyZWF0ZWQgb3IgbW9kaWZpZWQgdGhlIGZpbGUgY29udGVudHMubXNvZnR3YXJlQWdlbnShZG5hbWVmQ2xhdWRlcmFsbEFjdGlvbnNJbmNsdWRlZPUAAADIanVtYgAAAEBqdW1kY2JvcgARABCAAACqADibcRNjMnBhLmhhc2guZGF0YQAAAAAYYzJzaK7EdSOh4t3V7yJCkEmpfq8AAACAY2JvcqVjYWxnZnNoYTI1NmNwYWRNAAAAAAAAAAAAAAAAAGRoYXNoWCApU68BLpTpe5+Z2L6N2W40oYfeVofGYXzbiGV2xfIoG2RuYW1lbmp1bWJmIG1hbmlmZXN0amV4Y2x1c2lvbnOBomVzdGFydBi0Zmxlbmd0aBkeBAAAAj5qdW1iAAAAJ2p1bWRjMmNsABEAEIAAAKoAOJtxA2MycGEuY2xhaW0udjIAAAACD2Nib3KlY2FsZ2ZzaGEyNTZpc2lnbmF0dXJleE1zZWxmI2p1bWJmPS9jMnBhL3VybjpjMnBhOmRjMzdkYzUxLTU0Y2YtNDc3Ny1iOWQ4LTA5MDE4OGY3NDQ2Zi9jMnBhLnNpZ25hdHVyZWppbnN0YW5jZUlEeCx4bXA6aWlkOjFmZjFlNTg3LTk3YTItNDJhMC05NGExLWUyOTUyOWE4ZjU0ZXJjcmVhdGVkX2Fzc2VydGlvbnODomN1cmx4LXNlbGYjanVtYmY9YzJwYS5hc3NlcnRpb25zL2MycGEuaW5ncmVkaWVudC52M2RoYXNoWCDhY/d5yc8iAsuY7IkTo8sEqGIqrV8FmSOsyvM7o5wZc6JjdXJseCpzZWxmI2p1bWJmPWMycGEuYXNzZXJ0aW9ucy9jMnBhLmFjdGlvbnMudjJkaGFzaFggPTHR3VNMqyaCWJNjHtKjgn2TiH6hn2wWzVSDucz2wYSiY3VybHgpc2VsZiNqdW1iZj1jMnBhLmFzc2VydGlvbnMvYzJwYS5oYXNoLmRhdGFkaGFzaFggqZAuXtLsoLpdZKwmQ8PfF0p+q7j1KCSQz7JDbirI/390Y2xhaW1fZ2VuZXJhdG9yX2luZm+jZG5hbWVvQW50aHJvcGljIEZpbGVzZ3ZlcnNpb25lMS4wLjBrc3BlY1ZlcnNpb25lMi40LjAAABA4anVtYgAAAChqdW1kYzJjcwARABCAAACqADibcQNjMnBhLnNpZ25hdHVyZQAAABAIY2JvctKEWQISogEmGCFZAgowggIGMIIBjaADAgECAhRA5aAK7sI50L64g/oGQgU9Z1UTADAKBggqhkjOPQQDAzBJMRcwFQYDVQQKEw5BbnRocm9waWMsIFBCQzEuMCwGA1UEAxMlQW50aHJvcGljIENvbnRlbnQgQ3JlZGVudGlhbHMgUm9vdCBDQTAeFw0yNjA4MDcxODQzNTZaFw0yODA4MDYxOTQzNTZaMEQxFzAVBgNVBAoTDkFudGhyb3BpYywgUEJDMSkwJwYDVQQDEyBBbnRocm9waWMgQ2xhdWRlIENvbnRlbnQgU2lnbmluZzBZMBMGByqGSM49AgEGCCqGSM49AwEHA0IABJh6CmvLUBgFFNU0vUKlOVtE6djd17L5SuwX0LemFisBM3dkd/3cyjxFA3Qo5S46fX0/ihY0VZ7mfb9KF703t5OjWDBWMA4GA1UdDwEB/wQEAwIHgDAVBgNVHSUEDjAMBgorBgEEAYPoXgIBMAwGA1UdEwEB/wQCMAAwHwYDVR0jBBgwFoAUzlHiBIFOZFsj+OPEz5o+nMHXXMIwCgYIKoZIzj0EAwMDZwAwZAIwMXMdFJ4BetLLVY7ORuE9noqbbAZOZn/aArXyTwFAZfKrPzxF2vPoJNf1+UCdg1XGAjBwX1zd9WGqYkqmL5SFqw1QySjr1zJfpJM9+1rdDwSPLMOPOjKuiXjoU/pUUeG9RwmhY3BhZFkNngAAAAAAAAAAAAAAAAAAAAAAAAAAAAAAAAAAAAAAAAAAAAAAAAAAAAAAAAAAAAAAAAAAAAAAAAAAAAAAAAAAAAAAAAAAAAAAAAAAAAAAAAAAAAAAAAAAAAAAAAAAAAAAAAAAAAAAAAAAAAAAAAAAAAAAAAAAAAAAAAAAAAAAAAAAAAAAAAAAAAAAAAAAAAAAAAAAAAAAAAAAAAAAAAAAAAAAAAAAAAAAAAAAAAAAAAAAAAAAAAAAAAAAAAAAAAAAAAAAAAAAAAAAAAAAAAAAAAAAAAAAAAAAAAAAAAAAAAAAAAAAAAAAAAAAAAAAAAAAAAAAAAAAAAAAAAAAAAAAAAAAAAAAAAAAAAAAAAAAAAAAAAAAAAAAAAAAAAAAAAAAAAAAAAAAAAAAAAAAAAAAAAAAAAAAAAAAAAAAAAAAAAAAAAAAAAAAAAAAAAAAAAAAAAAAAAAAAAAAAAAAAAAAAAAAAAAAAAAAAAAAAAAAAAAAAAAAAAAAAAAAAAAAAAAAAAAAAAAAAAAAAAAAAAAAAAAAAAAAAAAAAAAAAAAAAAAAAAAAAAAAAAAAAAAAAAAAAAAAAAAAAAAAAAAAAAAAAAAAAAAAAAAAAAAAAAAAAAAAAAAAAAAAAAAAAAAAAAAAAAAAAAAAAAAAAAAAAAAAAAAAAAAAAAAAAAAAAAAAAAAAAAAAAAAAAAAAAAAAAAAAAAAAAAAAAAAAAAAAAAAAAAAAAAAAAAAAAAAAAAAAAAAAAAAAAAAAAAAAAAAAAAAAAAAAAAAAAAAAAAAAAAAAAAAAAAAAAAAAAAAAAAAAAAAAAAAAAAAAAAAAAAAAAAAAAAAAAAAAAAAAAAAAAAAAAAAAAAAAAAAAAAAAAAAAAAAAAAAAAAAAAAAAAAAAAAAAAAAAAAAAAAAAAAAAAAAAAAAAAAAAAAAAAAAAAAAAAAAAAAAAAAAAAAAAAAAAAAAAAAAAAAAAAAAAAAAAAAAAAAAAAAAAAAAAAAAAAAAAAAAAAAAAAAAAAAAAAAAAAAAAAAAAAAAAAAAAAAAAAAAAAAAAAAAAAAAAAAAAAAAAAAAAAAAAAAAAAAAAAAAAAAAAAAAAAAAAAAAAAAAAAAAAAAAAAAAAAAAAAAAAAAAAAAAAAAAAAAAAAAAAAAAAAAAAAAAAAAAAAAAAAAAAAAAAAAAAAAAAAAAAAAAAAAAAAAAAAAAAAAAAAAAAAAAAAAAAAAAAAAAAAAAAAAAAAAAAAAAAAAAAAAAAAAAAAAAAAAAAAAAAAAAAAAAAAAAAAAAAAAAAAAAAAAAAAAAAAAAAAAAAAAAAAAAAAAAAAAAAAAAAAAAAAAAAAAAAAAAAAAAAAAAAAAAAAAAAAAAAAAAAAAAAAAAAAAAAAAAAAAAAAAAAAAAAAAAAAAAAAAAAAAAAAAAAAAAAAAAAAAAAAAAAAAAAAAAAAAAAAAAAAAAAAAAAAAAAAAAAAAAAAAAAAAAAAAAAAAAAAAAAAAAAAAAAAAAAAAAAAAAAAAAAAAAAAAAAAAAAAAAAAAAAAAAAAAAAAAAAAAAAAAAAAAAAAAAAAAAAAAAAAAAAAAAAAAAAAAAAAAAAAAAAAAAAAAAAAAAAAAAAAAAAAAAAAAAAAAAAAAAAAAAAAAAAAAAAAAAAAAAAAAAAAAAAAAAAAAAAAAAAAAAAAAAAAAAAAAAAAAAAAAAAAAAAAAAAAAAAAAAAAAAAAAAAAAAAAAAAAAAAAAAAAAAAAAAAAAAAAAAAAAAAAAAAAAAAAAAAAAAAAAAAAAAAAAAAAAAAAAAAAAAAAAAAAAAAAAAAAAAAAAAAAAAAAAAAAAAAAAAAAAAAAAAAAAAAAAAAAAAAAAAAAAAAAAAAAAAAAAAAAAAAAAAAAAAAAAAAAAAAAAAAAAAAAAAAAAAAAAAAAAAAAAAAAAAAAAAAAAAAAAAAAAAAAAAAAAAAAAAAAAAAAAAAAAAAAAAAAAAAAAAAAAAAAAAAAAAAAAAAAAAAAAAAAAAAAAAAAAAAAAAAAAAAAAAAAAAAAAAAAAAAAAAAAAAAAAAAAAAAAAAAAAAAAAAAAAAAAAAAAAAAAAAAAAAAAAAAAAAAAAAAAAAAAAAAAAAAAAAAAAAAAAAAAAAAAAAAAAAAAAAAAAAAAAAAAAAAAAAAAAAAAAAAAAAAAAAAAAAAAAAAAAAAAAAAAAAAAAAAAAAAAAAAAAAAAAAAAAAAAAAAAAAAAAAAAAAAAAAAAAAAAAAAAAAAAAAAAAAAAAAAAAAAAAAAAAAAAAAAAAAAAAAAAAAAAAAAAAAAAAAAAAAAAAAAAAAAAAAAAAAAAAAAAAAAAAAAAAAAAAAAAAAAAAAAAAAAAAAAAAAAAAAAAAAAAAAAAAAAAAAAAAAAAAAAAAAAAAAAAAAAAAAAAAAAAAAAAAAAAAAAAAAAAAAAAAAAAAAAAAAAAAAAAAAAAAAAAAAAAAAAAAAAAAAAAAAAAAAAAAAAAAAAAAAAAAAAAAAAAAAAAAAAAAAAAAAAAAAAAAAAAAAAAAAAAAAAAAAAAAAAAAAAAAAAAAAAAAAAAAAAAAAAAAAAAAAAAAAAAAAAAAAAAAAAAAAAAAAAAAAAAAAAAAAAAAAAAAAAAAAAAAAAAAAAAAAAAAAAAAAAAAAAAAAAAAAAAAAAAAAAAAAAAAAAAAAAAAAAAAAAAAAAAAAAAAAAAAAAAAAAAAAAAAAAAAAAAAAAAAAAAAAAAAAAAAAAAAAAAAAAAAAAAAAAAAAAAAAAAAAAAAAAAAAAAAAAAAAAAAAAAAAAAAAAAAAAAAAAAAAAAAAAAAAAAAAAAAAAAAAAAAAAAAAAAAAAAAAAAAAAAAAAAAAAAAAAAAAAAAAAAAAAAAAAAAAAAAAAAAAAAAAAAAAAAAAAAAAAAAAAAAAAAAAAAAAAAAAAAAAAAAAAAAAAAAAAAAAAAAAAAAAAAAAAAAAAAAAAAAAAAAAAAAAAAAAAAAAAAAAAAAAAAAAAAAAAAAAAAAAAAAAAAAAAAAAAAAAAAAAAAAAAAAAAAAAAAAAAAAAAAAAAAAAAAAAAAAAAAAAAAAAAAAAAAAAAAAAAAAAAAAAAAAAAAAAAAAAAAAAAAAAAAAAAAAAAAAAAAAAAAAAAAAAAAAAAAAAAAAAAAAAAAAAAAAAAAAAAAAAAAAAAAAAAAAAAAAAAAAAAAAAAAAAAAAAAAAAAAAAAAAAAAAAAAAAAAAAAAAAAAAAAAAAAAAAAAAAAAAAAAAAAAAAAAAAAAAAAAAAAAAAAAAAAAAAAAAAAAAAAAAAAAAAAAAAAAAAAAAAAAAAAAAAAAAAAAAAAAAAAAAAAAAAAAAAAAAAAAAAAAAAAAAAAAAAAAAAAAAAAAAAAAAAAAAAAAAAAAAAAAAAAAAAAAAAAAAAAAAAAAAAAAAAAAAAAAAAAAAAAAAAAAAAAAAAAAAAAAAAAAAAAAAAAAAAAAAAAAAAAAAAAAAAAAAAAAAAAAAAAAAAAAAAAAAAAAAAAAAAAAAAAAAAAAAAAAAAAAAAAAAAAAAAAAAAAAAAAAAAAAAAAAAAAAAAAAAAAAAAAAAAAAAAAAAAAAAAAAAAAAAAAAAAAAAAAAAAAAAAAAAAAAAAAAAAAAAAAAAAAAAAAAAAAAAAAAAAAAAAAAAAAAAAAAAAAAAAAAAAAAAAAAAAAAAAAAAAAAAAAAAAAAAAAAAAAAAAAAAAAAAAAAAAAAAAAAAAAAAAAAAAAAAAAAAAAAAAAAAAAAAAAAAAAAAAAAAAAAAAAAAAAAAAAAAAAAAAAAAAAAAAAAAAAAAAAAAAAAAAAAAAAAAAAAAAAAAAAAAAAAAAAAAAAAAAAAAAAAAAAAAAAAAAAAAAAAAAAAAAAAAAAAAAAAAAAAAAAAAAAAAAAAAAAAAAAAAAAAAAAAAAAAAAAAAAAAAAAAAAAAAAAAAAAAAAAAAAAAAAAAAAAAAAAAAAAAAAAAAAAAAAAAAAAAAAAAAAAAAAAAAAAAAAAAAAAAAAAAAAAAAAAAAAAAAAAAAAAAAAAAAAAAAAAAAAAAAAAAAAAAAAAAAAAAAAAAAAAAAAAAAAAAAAAAAAAAAAAAAAAAAAAAAAAAAAAAAAAAAAAAAAAAAAAAAAAAAAAAAAAAAAAAAAAAAAAAAAAAAAAAAAAAAAAAAAAAAAAAAAAAAAAAAAAAAAAAAAAAAAAAAAAAAAAAAAAAAAAAAAAAAAAAAAAAAAAAAAAAAAAAAAAAAAAAAAAAAAAAAAAAAAAAAAAAAAAAAAAAAAAAAAAAAAAAAAAAAAAAAAAAAAAAAAAAAAAAAAAAAAAAAAAAAAAAAAAAAAAAAAAAAAAAAAAAAAAAAAAAAAAAAAAAAAAAAAAAAAAAAAAAAAAAAAAAAAAAAAAAAAAAAAAAAAAAAAAAAAAAAAAAAAAAAAAAAAAAAAAAAAAAAAAAAAAAAAAAAAAAAAAAAAAAAAAAAAAAAAAAAAAAAAAAAAAAAAAAAAAAAAAAAAAAAAAAAAAAAAAAAAAAAAAAAAAAAAAAAAAAAAAAAAAAAAAAAAAAAAAAAAAAAAAAAAAAAAAAAAAAAAAAAAAAAAAAAAAAAAAAAAAAAAAAAAAAAAAAAAAAAAAAAAAAAAAAAAAAAAAAAAAAAAAAAAAAAAAAAAAAAAAAAAAAAAAAAAAAAAAAAAAAPZYQDeY+OdpTH2EAXRdNm6YukiecByhvYinFhG/ze1wWeRnK7wxY9y5GT2Y51P+bD+VQzy6IV3r+eFrKMbcOufVxYU=</c2pa:manifest></metadata>
  <title id="map-title">Sunday and Company locations</title>
  <desc id="map-description">A stationary vector map highlighting the DMV and North Carolina.</desc>
  
  <rect width="380" height="600" fill="#f5efe6"></rect>
  <g stroke-linejoin="round" stroke-linecap="round">
    <path d="M125.724,360.021L129.107,359.699L140.861,358.204L156.686,356.279L173.631,354.175L173.524,354.033L185.836,352.125L185.829,354.007L183.387,356.115L181.5,359.111L181.711,360.023L181.107,360.783L181.587,362.389L184.472,364.142L185.971,364.122L188.331,366.516L190.508,367.55L192.883,366.804L193.621,367.015L194.544,368.558L195.034,370.162L196.185,370.785L196.625,372.029L197.77,373.227L197.953,374.533L198.808,376.189L199.941,376.657L200.882,378.274L202.278,379.33L203.607,381.779L204.397,381.692L206.323,383.298L209.052,384.263L211.955,386.402L212.533,387.911L213.475,388.845L213.712,389.855L214.995,390.66L216.056,390.556L217.687,391.282L219.621,393.426L221.038,393.894L221.481,394.455L221.029,395.646L221.53,396.59L221.3,397.461L224.078,399.187L223.841,400.007L225.148,400.908L226.098,400.634L226.08,401.708L226.959,402.751L229.554,403.794L230.344,403.648L231.983,404.913L233.829,405.753L233.651,407.532L234.963,409.002L235.333,410.225L236.188,410.485L236.524,412.654L237.004,413.416L236.739,414.633L237.302,414.755L237.847,415.924L237.565,417.039L238.82,418.098L241.143,418.416L241.234,419.002L243.602,420.748L243.382,421.671L245.137,424.138L245.477,423.979L246.317,425.832L245.603,427.094L246.853,428.647L246.601,429.366L247.296,430.875L249.308,431.444L250.222,430.855L252.475,432.35L253.295,432.323L254.416,432.457L254.231,434.158L253.098,435.097L252.143,434.858L251.801,436.166L252.728,436.227L251.54,437.983L249.567,437.696L249.524,439.165L250.554,439.289L249.985,440.919L248.678,442.535L247.101,442.444L246.896,442.894L248.105,443.565L248.802,443.325L249.05,445.477L248.67,447.155L246.256,448.212L246.344,448.772L247.833,448.278L248.468,448.804L246.921,452.463L246.742,454.864L247.425,455.096L247.093,455.93L247.027,458.469L245.94,459.212L245.45,460.826L244.648,461.028L244.928,462.835L244.566,464.689L243.924,464.736L243.01,466.023L244.282,466.452L245.184,465.687L245.594,467.734L244.774,472.053L245.503,473.763L244.247,473.462L243.034,474.039L241.418,473.818L238.345,473.79L237.613,473.25L235.87,472.785L234.314,472.94L233.552,472.195L232.163,472.22L231.569,473.844L230.448,473.802L230.902,474.359L230.235,474.874L230.51,476.108L230.372,477.689L231.808,479.843L231.983,482.911L231.613,484.188L231.895,486.096L228.563,486.925L227.275,485.138L227.285,483.291L226.55,482.723L226.155,481.298L226.559,480.876L214.126,481.776L195.157,483.048L171.151,484.667L158.655,485.522L157.232,484.446L156.46,482.593L156.03,480.492L154.872,479.28L154.091,477.323L153.728,475.784L152.901,474.221L150.815,472.103L150.928,470.69L150.324,469.437L150.897,468.827L150.574,466.816L151.062,464.684L150.754,463.605L151.219,462.072L150.592,459.032L148.619,457.002L148.67,455.854L147.765,452.74L147.903,451.557L148.95,449.567L149.325,447.291L149.25,445.067L148.815,443.663L149.827,442.196L151.02,441.511L150.769,440.917L151.755,440.802L152.495,439.364L151.3,438.465L149.604,437.936L150.15,434.833L149.238,434.003L148.725,431.932L147.003,430.339L145.897,428.595L145.012,424.825L143.722,423.803L143.973,422.839L143.078,422.11L138.074,404.14L135.852,396.3L133.863,388.874L131.201,379.307L127.935,368.136Z" fill="#eee4d8" stroke="#311d03" stroke-width="0.9" vector-effect="non-scaling-stroke"></path>
    <path d="M336.352,183.765L337.11,181.876L337.652,180.908L337.712,179.277L338.435,178.004L339.545,176.593L342.431,175.29L344.168,173.709L343.779,171.965L344.909,171.049L345.278,170.09L347.568,167.664L348.91,166.963L349.57,165.459L350.408,165.481L351.531,164.19L350.015,162.649L348.198,161.973L347.347,160.784L345.379,159.795L344.439,158.202L342.357,158.165L341.787,157.099L341.407,154.663L340.41,153.904L339.098,154.33L338.31,154.134L337.686,152.071L338.068,151.191L337.315,150.775L337.46,148.091L338.353,148.024L339.521,144.766L336.961,142.156L337.709,140.716L338.954,139.668L339.888,137.973L339.439,137.437L340.569,136.254L341.149,134.823L341.534,131.447L342.853,129.317L344.024,128.706L351.883,131.493L363.635,135.279L363.983,135.702L363.532,140.782L362.978,142.642L363.05,144.353L362.71,145.018L362.362,146.004L359.662,147.567L359.842,149.758L359.228,150.327L359.286,151.643L359.538,152.727L361.199,153.084L362.353,152.336L364.504,153.001L365.66,152.968L365.714,151.785L366.564,153.979L366.964,156.731L366.939,161.58L367.373,168.05L368,172.506L366.236,179.33L365.64,180.746L364.974,181.14L365.401,181.892L364.925,183.466L363.694,185.426L363.724,185.924L361.563,187.885L359.623,191.201L358.617,194.567L357.704,198.734L356.437,200.615L354.985,201.315L354.019,201.161L354.002,198.827L354.656,196.103L354.503,194.304L352.605,193.749L351.137,193.973L350.513,193.449L349.084,193.848L348.725,194.884L347.867,194.438L347.441,193.285L345.788,192.671L345.379,191.965L344.643,192.447L343.059,190.993L342.542,191.319L340.776,190.169L339.663,188.928L338.002,188.629L337.707,184.981L336.586,184.457Z" fill="#eee4d8" stroke="#311d03" stroke-width="0.9" vector-effect="non-scaling-stroke"></path>
    <path d="M356.264,293.471L357.882,293.623L359.299,295.276L359.642,296.448L358.33,296.495L358.25,295.319ZM354.995,320.496L355.351,318.832L356.031,318.686L359.557,315.651L360.765,315.072L361.773,313.979L362.78,313.707L363.944,312.526L364.991,312.032L365.005,310.068L364.539,303.49L364.239,302.124L363.038,299.868L361.951,297.322L362.214,297.318L363.729,299.796L364.678,302.107L365.18,305.603L365.495,313.115L363.503,313.762L359.609,316.302L356.379,319.062ZM213.046,299.845L220.191,299.168L224.839,298.521L232.905,297.631L236.005,297.025L245.692,295.983L249.74,295.356L264.048,292.949L287.48,288.715L293.668,287.449L315.785,283.155L324.658,281.394L324.606,281.14L327.209,280.661L337.236,278.585L349.089,276.069L349.572,277.502L352.33,283.401L354.536,287.112L357.322,290.643L361.761,296.86L360.926,296.671L358.606,293.307L356.989,291.537L355.836,291.496L354.127,287.254L351.939,283.618L351.144,283.18L351.182,282.138L350.279,279.974L349.28,279.394L348.685,278.249L346.526,278.367L346.226,277.371L345.249,278.11L346.08,279.549L347.677,280.479L348.542,280.029L348.906,281.726L350.896,284.876L351.982,286.259L352.04,286.936L353.372,288.636L353.629,289.826L351.686,288.549L351.568,287.594L350.146,286.283L349.688,285.374L348.618,285.285L349.327,286.141L349.227,286.904L350.613,287.64L347.878,287.563L344.559,285.144L343.238,285.106L345.352,287.227L346.282,287.479L347.065,288.69L346.434,289.433L344.495,290.215L342.352,288.788L343.276,290.261L344.261,290.768L343.748,291.247L340.904,290.655L339.786,290.757L339.212,290.109L337.573,289.817L339.892,291.264L341.778,291.477L341.291,292.082L339.317,292.708L338.552,294.508L337.322,295.346L335.886,295.618L335.05,294.971L333.304,295.014L331.663,292.152L331.344,290.604L331.944,288.417L331.457,288.174L330.678,290.344L330.907,292.307L332.069,294.554L333.397,296.318L333.196,297.47L334.047,298.194L337.365,297.242L340.231,295.401L341.249,296.485L342.312,296.103L343.246,295.112L345.305,294.042L348.001,293.496L349.4,294.284L349.632,295.373L348.875,297.601L349.424,298.94L350.478,303.059L351.211,302.77L351.18,299.731L350.62,295.878L351.581,294.612L350.898,293.884L351.966,293.125L354.182,293.205L356.042,295.294L356.988,296.812L356.936,298.202L358.063,300.554L357.526,301.333L358.159,302.627L357.357,304.232L355.975,304.795L355.37,304.448L354.612,305.035L354.322,306.156L353.525,306.566L353.504,307.709L352.971,308.114L352.763,310.039L351.742,310.653L351.736,311.873L350.429,312.812L350.304,313.474L347.964,313.307L345.525,313.926L343.223,313.932L342.666,313.387L341.892,313.919L340.382,313.042L338.675,310.355L341.285,309.733L341.471,308.504L339.232,309.631L338.158,309.563L337.569,310.558L338.63,311.845L339.591,313.921L338.997,314.044L336.29,313.359L335.155,313.857L333.281,313.342L330.496,313.117L328.298,312.295L328.362,313.048L330.119,314.304L331.927,314.068L337.805,315.559L341.858,315.46L342.701,316.104L342.998,317.1L342.698,318.643L341.877,320.242L342.11,320.934L341.622,322.437L340.564,323.766L336.884,327.483L332.038,325.512L332.458,327.144L334.791,328.122L338.088,328.584L340.744,325.923L341.842,325.643L343.987,324.404L344,322.762L345.011,322.921L345.616,324.54L346.463,325.183L348.024,324.988L346.858,323.249L348.717,323.626L349.341,325.743L348.289,327.948L346.821,328.599L347.001,329.46L346.167,330.163L345.413,332.541L345.188,334.465L343.627,334.26L343.293,332.215L342.338,331.91L342.853,333.971L341.52,334.431L345.453,335.308L346.772,331.782L348.956,328.152L350.604,325.821L353.664,320.515L354.459,320.902L352.521,323.51L350.818,326.411L349.271,328.376L347.891,330.729L346.785,333.128L345.593,336.416L345.505,337.28L344.809,335.653L341.523,334.88L338.177,335.541L333.23,337.551L330.912,338.889L329.358,340.046L327.02,342.65L324.044,345.219L322.121,347.259L319.494,350.752L318.558,352.384L317.03,356.053L316.363,359.106L316.045,362.117L315.602,364.02L315.592,365.838L314.429,365.877L314.003,365.064L312.079,364.878L310.039,365.029L307.619,365.54L305.071,366.335L302.231,367.97L301.616,368.532L292,361.624L281.342,354.029L278.142,351.548L269.211,345.179L263.957,346.058L257.557,346.96L242.18,349.231L241.968,345.726L237.54,341.22L235.259,343.497L234.744,343.028L235.151,341.706L234.764,340.378L229.989,340.79L220.908,341.774L204.64,343.437L202.737,344.236L202.163,343.298L201.323,344.78L200.688,344.635L199.066,345.574L198.531,345.519L196.206,347.078L194.01,348.956L193.332,348.502L185.836,352.125L173.524,354.033L173.631,354.175L156.686,356.279L156.59,349.118L158.332,347.649L158.674,348.285L161.073,347.88L162.763,346.022L162.147,344.612L162.84,343.872L162.352,342.785L163.611,341.007L164.678,340.479L165.207,339.158L166.553,338.777L167.69,337.455L174.525,336.377L175.297,334.969L177.071,333.896L177.41,333.171L178.29,333.236L179.493,331.82L179.714,330.876L181.068,330.588L181.612,329.468L183.305,328.479L185.418,328.66L187.229,325.403L186.749,323.822L187.495,322.934L188.901,323.679L190.253,320.927L192.808,318.735L193.804,319.641L193.633,321.496L194.983,321.828L197.139,319.897L198.072,317.329L199.217,316.248L200.583,315.5L201.62,315.48L202.261,314.523L203.919,314.594L204.446,315.826L205.72,315.639L206.803,314.745L208.839,309.204L210.413,307.58L211.297,307.133L212.063,307.62L213.501,307.402L212.369,305.635L212.708,303.88L213.169,303.496L212.52,301.497Z" fill="#d8c2ad" stroke="#311d03" stroke-width="0.9" vector-effect="non-scaling-stroke"></path>
    <path d="M213.824,135.203L217.314,133.028L220.508,130.555L221.106,129.825L221.627,128.165L222.626,127.918L222.98,128.592L225.47,126.281L228.799,123.769L230.179,131.767L230.266,131.804L249.515,128.416L255.494,127.239L268.49,124.843L287.353,121.11L295.479,119.379L304.1,117.695L317.185,114.934L325.446,113.075L326.857,114.326L327.222,114.139L328.4,116.526L329.538,116.167L331.819,116.56L332.87,117.623L332.431,118.569L333.634,118.856L334.688,122.834L334.135,123.276L336.717,125.692L336.988,126.532L337.815,126.214L339.169,126.783L339.116,127.273L341.044,126.757L341.403,127.259L342.602,126.774L342.697,127.549L344.024,128.706L342.853,129.317L341.534,131.447L341.149,134.823L340.569,136.254L339.439,137.437L339.888,137.973L338.954,139.668L337.709,140.716L336.961,142.156L339.521,144.766L338.353,148.024L337.46,148.091L337.315,150.775L338.068,151.191L337.686,152.071L338.31,154.134L339.098,154.33L340.41,153.904L341.407,154.663L341.787,157.099L342.357,158.165L344.439,158.202L345.379,159.795L347.347,160.784L348.198,161.973L350.015,162.649L351.531,164.19L350.408,165.481L349.57,165.459L348.91,166.963L347.568,167.664L345.278,170.09L344.909,171.049L343.779,171.965L344.168,173.709L342.431,175.29L339.545,176.593L338.435,178.004L336.396,177.471L334.61,177.702L332.806,178.625L331.797,179.746L330.649,182.167L313.305,185.864L303.863,187.826L291.762,190.243L272.808,193.806L248.293,198.31L234.844,200.628L224.848,202.295L220.363,175.002Z" fill="#eee4d8" stroke="#311d03" stroke-width="0.9" vector-effect="non-scaling-stroke"></path>
    <path d="M183.666,248.236L185.221,248.538L187.957,247.098L189.81,246.543L190.039,245.226L189.921,242.677L190.802,241.815L192.142,241.803L192.522,240.962L191.897,238.408L190.684,235.835L192.208,234.25L191.955,232.532L192.768,230.107L193.646,229.27L193.995,228.249L195.209,229.117L196.111,229.009L197.393,230.888L196.892,232.011L197.868,232.389L198.52,231.715L198.603,230.602L199.262,229.979L200.093,230.509L199.991,227.615L199.063,226.995L198.653,225.93L200.128,225.21L199.512,222.787L200.005,221.638L200.772,221.207L200.802,219.761L203.349,219.556L203.268,217.393L204.998,215.135L206.452,215.409L207.146,216.665L208.027,216.449L209.543,214.981L210.89,214.56L211.565,213.038L212.424,212.692L212.878,211.362L213.942,209.698L216.006,207.034L217.262,206.597L217.244,204.422L217.944,203.627L216.851,202.491L217.621,201.108L217.387,199.65L218.097,198.932L217.528,197.45L218.619,197.562L218.243,196.259L218.723,195.656L218.218,192.537L218.816,191.653L218.575,190.17L219.177,188.813L219.324,187.188L220.029,186.47L220.157,184.743L219.521,182.355L219.544,180.488L218.475,178.459L217.415,177.478L217.924,176.083L219.043,175.926L220.363,175.002L224.848,202.295L234.844,200.628L248.293,198.31L250.739,213.664L251.518,213.342L253.727,210.242L254.703,210.095L255.208,208.242L257.44,206.264L258.147,204.163L259.044,204.055L261.47,204.564L262.107,203.026L264.435,198.441L265.528,198.503L264.547,199.052L265.678,199.319L265.961,199.952L267.731,200.521L269.096,200.243L269.745,200.597L272.02,200.279L272.967,199.1L272.17,197.958L273.221,197.787L272.184,197.138L273.362,197.207L273.909,196.13L275.547,196.428L277.379,193.787L279.403,193.93L281.007,194.916L281.845,195.811L283.194,195.024L284.674,195.346L285.779,195.027L285.961,195.968L284.748,196.598L286.053,198.167L287.784,198.913L287.786,199.784L288.57,199.948L289.186,200.964L289.014,202.66L289.89,202.859L289.386,204.145L288.553,208.926L281.228,204.818L275.042,201.268L275.016,202.908L275.553,203.545L275.241,204.552L275.859,204.726L274.507,207.774L275.063,208.066L274.431,209.608L275.412,210.373L274.411,212.195L273.877,212.479L272.349,215.082L272.911,215.4L272.072,217.216L271.405,216.786L270.497,218.693L269.797,219.454L269.628,218.536L268.09,220.689L267.067,224.301L263.75,222.243L263.335,224.135L262.326,226.476L262.57,228.301L261.912,228.393L261.357,229.994L260.76,233.734L258.894,236.54L254.887,235.853L253.007,233.314L250.262,232.556L249.653,235.845L250.186,237.462L249.467,239.165L248.045,241.698L248.731,242.737L247.837,243.443L246.135,245.865L245.803,247.394L246.424,248.051L245.896,248.929L245.662,250.547L245.059,251.99L243.794,253.545L241.763,256.621L240.505,259.775L240.824,260.668L239.996,261.831L240.503,262.824L242.058,263.457L241.234,264.646L239.884,265.765L239.937,266.597L241.034,266.519L240.826,267.316L237.171,270.523L236.052,268.921L235.092,269.315L233.708,270.775L230.589,273.146L230.148,272.535L228.243,271.844L227.869,273.243L228.796,274.223L227.405,275.68L226.007,276.034L223.029,277.215L220.646,278.928L218.091,277.36L216.994,276.35L216.41,276.991L215.96,278.503L214.106,279.235L214.057,280.029L213.084,280.939L210.268,281.552L208.493,280.563L208.4,279.948L207.301,279.458L205.785,279.607L205.001,278.362L203.713,277.742L203.202,275.46L201.867,275.082L201.658,274.249L203.029,273.154L202.002,272.547L200.851,272.822L198.405,272.398L198.016,271.486L197.346,271.558L196.613,270.617L195.871,270.778L195.132,269.786L193.843,269.685L192.264,266.405L191.363,266.038L190.058,264.628L190.016,263.744L188.701,263.435L187.895,262.53L188.604,260.988L187.281,260.601L186.243,258.655L185.251,257.618L183.875,256.844L183.737,255.869L184.399,255.776L184.446,254.329L184.043,253.863L184.831,252.887L184.702,251.387L183.911,250.557Z" fill="#eee4d8" stroke="#311d03" stroke-width="0.9" vector-effect="non-scaling-stroke"></path>
    <path d="M336.352,183.765L336.586,184.457L336.352,183.765ZM330.649,182.167L331.797,179.746L332.806,178.625L334.61,177.702L336.396,177.471L338.435,178.004L337.712,179.277L337.652,180.908L337.11,181.876L336.592,181.803L335.282,184.237L335.657,185.19L336.708,185.782L337.059,187.005L336.573,187.854L336.8,188.892L338.209,189.963L339.092,191.308L341.121,192.507L342.303,194.052L342.867,195.466L342.66,196.441L343.523,199.594L345.08,200.524L345.884,201.488L346.46,203.324L349.974,206.182L351.43,206.627L352.102,205.84L352.629,206.678L353.763,209.85L355.47,215.948L346.939,217.815L340.877,218.901L340.319,217.112L331.119,184.345Z" fill="#eee4d8" stroke="#311d03" stroke-width="0.9" vector-effect="non-scaling-stroke"></path>
    <path d="M305.739,211.634L307.08,209.513L310.684,211.902L308.373,215.492L307.895,213.129Z" fill="#d8c2ad" stroke="#311d03" stroke-width="0.9" vector-effect="non-scaling-stroke"></path>
    <path d="M36.182,307.686L34.901,306.427L35.136,304.981L36.391,303.539L37.029,301.804L38.046,300.638L39.103,300.014L40.714,300.024L43.411,300.913L44.669,301.831L47.703,302.637L49.413,303.855L50.537,304.105L51.784,303.746L52.445,301.379L51.719,299.721L50.153,298.156L49.933,297.523L50.558,295.784L50.614,294.349L52.037,293.092L53.268,293.669L54.673,292.204L55.658,291.837L59.65,291.014L60.045,289.68L58.221,288.064L57.409,285.4L58.211,283.877L59.558,282.854L60.084,281.094L62.078,281.758L62.978,280.458L61.942,278.179L62.689,277.075L63.449,277.114L64.483,278.378L67.92,277.273L68.405,278.011L68.282,279.479L69.208,279.475L70.202,278.346L69.138,276.775L69.571,275.02L70.252,275.115L70.865,276.336L72.077,276.722L73.159,275.662L74.841,275.666L76.781,276.634L78.753,277.935L80.287,278.131L81.105,279.669L82.017,279.505L82.536,278.753L82.717,276.211L83.478,275.358L85.829,274.43L86.867,272.977L88.278,272.788L89.502,274.986L90.391,275.472L91.162,274.746L92.021,274.921L91.734,276.278L92.379,276.839L93.223,276L93.228,274.359L95.122,273.936L94.608,272.997L94.532,270.556L96.006,270.174L96.396,269.04L95.603,268.677L96.276,267.854L97.001,268.38L97.59,267.565L98.665,267.403L98.682,266.75L97.571,266.551L97.399,265.682L98.058,265.563L99.979,267.112L100.311,269.527L102.621,270.722L104.454,270.557L105.693,271.939L105.929,270.976L107.794,270.309L108.394,269.62L108.617,267.772L108.295,265.538L109.425,263.541L109.748,261.864L110.541,261.44L111.768,261.933L113.233,260.757L114.352,256.437L116.735,255.287L117.188,254.089L118.394,252.912L117.694,251.138L117.006,247.955L117.899,246.995L119.236,247.028L121.356,246.606L122.306,247.619L123.9,247.698L124.937,246.561L127.629,244.606L128.384,244.648L129.63,243.902L131.448,243.766L130.821,242.692L131.749,241.382L131.344,240.777L129.927,240.762L129.569,239.839L130.356,238.754L130.098,237.976L128.572,236.303L128.675,235.769L130.095,234.428L131.421,233.018L132,233.001L133.393,234.244L135.199,234.758L136.254,233.874L137.409,233.812L137.973,232.986L138.653,233.112L139.197,234.847L141.673,235.378L142.759,237.437L144.336,239.409L144.547,241.106L145.041,241.724L148.459,242.366L151.108,241.534L153.641,242.411L154,243.253L155.319,243.763L155.897,244.995L158.297,245.441L159.226,243.594L161.289,242.748L162.63,243.407L165,243.614L165.987,244.109L166.547,245.159L167.533,244.398L170.003,244.09L170.64,242.617L171.999,241.542L172.6,240.439L173.831,240.27L175.441,239.21L176.133,239.977L176.044,241.141L177.18,243.887L178.381,244.688L180.13,244.6L182.143,246.383L183.341,247.13L183.666,248.236L183.911,250.557L184.702,251.387L184.831,252.887L184.043,253.863L184.446,254.329L184.399,255.776L183.737,255.869L183.875,256.844L185.251,257.618L186.243,258.655L187.281,260.601L188.604,260.988L187.895,262.53L188.701,263.435L190.016,263.744L190.058,264.628L191.363,266.038L192.264,266.405L193.843,269.685L195.132,269.786L195.871,270.778L196.613,270.617L197.346,271.558L198.016,271.486L198.405,272.398L200.851,272.822L202.002,272.547L194.179,281.998L191.227,283.444L189.535,284.758L188.121,286.242L186.188,287.692L186.498,289.899L185.295,291.089L184.294,291.281L183.404,292.268L183.867,293.747L183.523,294.973L181.547,296.188L179.119,296.626L178.052,298.864L178.058,300.171L176.723,300.457L174.06,301.732L170.945,303.507L169.165,303.691L166.541,305.316L165.956,306.098L165.688,306.681L158.64,307.379L151.948,308.167L145.499,308.827L138.437,309.384L134.07,309.477L127.775,309.964L123.156,310.847L114.997,311.529L110.223,311.776L103.127,311.939L98.962,312.256L97.662,312.959L97.012,312.45L84.657,313.956L76.853,314.726L67.192,315.785L67.199,314.874L61.984,314.874L63.151,318.599L62.78,320.294L51.107,321.086L40.379,321.903L33.214,322.264L30.421,322.72L31.272,318.972L32.354,318.559L34.028,320.466L35.101,319.922L35.565,318.045L36.191,317.246L35.148,315.814L35.406,314.653L36.77,314.632L36.972,313.89L35.461,313.038L35.475,312.05L36.306,311.756L36.728,310.53L36.983,308.173ZM28.806,322.883L27.526,322.945L26.658,321.497L26.946,320.699L28.737,320.628L29.249,321.866Z" fill="#eee4d8" stroke="#311d03" stroke-width="0.9" vector-effect="non-scaling-stroke"></path>
    <path d="M337.243,235.325L336.097,235.57L335.626,233.762L336.129,232.913L337.245,233.735ZM333.872,230.744L333.61,228.706L334.438,228.185L335.171,228.824L336.218,231.728L334.878,231.457L335.059,230.703ZM323.014,213.115L323.313,212.523L323.963,213.604ZM248.293,198.31L272.808,193.806L291.762,190.243L303.863,187.826L313.305,185.864L330.649,182.167L331.119,184.345L340.319,217.112L340.877,218.901L346.939,217.815L355.47,215.948L355.632,217.054L355.495,219.873L355.174,220.344L354.736,226.044L353.942,229.407L345.409,232.291L345.222,233.791L344.709,233.796L343.48,233.267L341.947,233.705L340.496,235.715L339.764,235.899L339.318,234.218L339.509,232.321L340.746,231.313L339.346,231.561L339.264,230.386L339.944,229.179L338.181,229.32L337.38,230.366L336.901,229.727L336.994,228.169L338.969,227.029L338.267,226.146L337.604,226.634L337.082,225.791L337.694,222.691L336.603,223.561L336.289,224.875L336.614,226.395L335.967,226.56L334.653,224.8L335.501,224.38L335.132,223.055L334.427,222.94L334.366,224.252L333.811,225.245L334.446,225.825L334.047,227.553L333.564,226.887L332.301,227.765L331.502,227.616L329.752,225.788L328.949,225.613L328.882,224.488L326.122,221.069L327.674,220.372L327.872,219.297L327.26,219.612L326.256,218.472L326.692,217.321L327.549,216.558L328.17,217.089L329.005,216.224L329.279,217.119L331.114,216.968L332.38,217.732L332.651,217.41L330.98,215.937L329.525,215.875L328.65,214.948L328.098,215.144L326.389,213.465L326.133,214.261L325.053,213.958L325.286,215.472L324.676,215.388L324.381,212.775L325.349,210.136L326.723,211.038L327.317,210.647L326.409,207.555L325.672,207.26L324.548,208.742L323.556,208.844L323.893,210.044L323.012,210.679L322.783,207.974L323.538,205.141L324.375,206.315L326.131,206.236L326.853,205.262L326.079,203.996L326.671,202.413L325.429,202.915L325.465,204.284L325.954,205.002L324.894,204.776L324.799,203.127L324,201.733L323.361,201.497L323.922,197.777L324.663,196.508L324.373,195.934L325.364,195.062L325.728,194.005L328.17,193.644L327.157,193.224L328.223,191.142L327.388,191.161L327.689,187.864L325.015,189.07L324.792,190.389L325.884,190.793L326.377,191.535L325.49,192.095L323.28,195.132L322.552,194.465L322.825,192.977L322.033,192.403L322.268,193.518L321.818,194.964L322.642,195.69L322.325,196.975L321.33,194.643L320.051,194.541L321.081,197.051L320.395,196.984L320.135,198.15L321.218,198.505L319.761,199.975L319.345,200.803L318.255,200.819L317.957,200.193L315.942,199.394L316.426,200.511L317.22,200.69L317.597,201.697L320.059,202.613L320.576,204.279L320.305,204.997L321.609,205.995L319.989,207.525L320.75,208.346L320.719,209.411L319.97,209.461L319.694,210.975L320.46,212.218L319.388,213.976L320.381,215.093L320.503,216.497L321.376,218.248L321.683,220.541L322.595,222.071L324.81,223.727L325.791,225.164L325.296,226.459L324.117,226.52L325.073,227.432L325.691,226.721L326.418,226.939L326.096,228.251L326.678,229.4L328.638,231.426L328.346,232.07L329.272,234.444L328.434,234.117L327.226,232.834L326.55,232.869L325.802,231.331L325.196,231.696L325.334,233.176L324.56,232.331L323.922,232.543L323.26,231.41L322.043,230.471L320.043,230.276L317.167,230.788L315.844,227.646L315.124,227.449L314.958,228.303L316.127,229.863L316.078,230.455L314.058,229.729L313.719,228.899L312.498,228.327L310.932,225.63L309.527,227.077L307.12,229.041L306.003,228.551L304.848,225.743L305.328,223.479L306.259,221.786L307.733,220.697L307.275,220.525L306.963,219.398L307.394,218.597L308.728,217.667L308.373,215.492L310.684,211.902L307.08,209.513L305.739,211.634L304.821,210.841L303.171,211.013L302.437,210.711L302.274,209.475L299.958,208.827L297.132,208.991L296.451,208.095L295.577,207.924L295.368,206.434L296.004,205.833L296.324,204.475L294.252,203.748L293.543,202.699L292.338,202.962L290.923,202.579L289.89,202.859L289.014,202.66L289.186,200.964L288.57,199.948L287.786,199.784L287.784,198.913L286.053,198.167L284.748,196.598L285.961,195.968L285.779,195.027L284.674,195.346L283.194,195.024L281.845,195.811L281.007,194.916L279.403,193.93L277.379,193.787L275.547,196.428L273.909,196.13L273.362,197.207L272.184,197.138L273.221,197.787L272.17,197.958L272.967,199.1L272.02,200.279L269.745,200.597L269.096,200.243L267.731,200.521L265.961,199.952L265.678,199.319L264.547,199.052L265.528,198.503L264.435,198.441L262.107,203.026L261.47,204.564L259.044,204.055L258.147,204.163L257.44,206.264L255.208,208.242L254.703,210.095L253.727,210.242L251.518,213.342L250.739,213.664Z" fill="#d8c2ad" stroke="#311d03" stroke-width="0.9" vector-effect="non-scaling-stroke"></path>
    <path d="M23.913,338.221L24.903,337.558L25.031,335.603L26.846,334.442L26.654,332.871L24.131,331.119L24.352,330.559L26.944,330.801L28.2,330.326L28.067,329.634L26.205,328.747L26.141,327.791L28.188,327.626L28.549,326.64L27.592,325.174L28.076,323.478L27.526,322.945L28.806,322.883L28.69,323.696L29.811,323.801L30.421,322.72L33.214,322.264L40.379,321.903L51.107,321.086L62.78,320.294L63.151,318.599L61.984,314.874L67.199,314.874L67.192,315.785L76.853,314.726L84.657,313.956L97.012,312.45L97.662,312.959L98.962,312.256L103.127,311.939L110.223,311.776L114.997,311.529L123.156,310.847L127.775,309.964L134.07,309.477L138.437,309.384L145.499,308.827L151.948,308.167L158.64,307.379L165.688,306.681L165.956,306.098L168.759,305.835L175.35,304.931L175.79,305.003L189.057,303.199L194.197,302.391L206.947,300.579L207.101,299.875L213.612,299.025L213.046,299.845L212.52,301.497L213.169,303.496L212.708,303.88L212.369,305.635L213.501,307.402L212.063,307.62L211.297,307.133L210.413,307.58L208.839,309.204L206.803,314.745L205.72,315.639L204.446,315.826L203.919,314.594L202.261,314.523L201.62,315.48L200.583,315.5L199.217,316.248L198.072,317.329L197.139,319.897L194.983,321.828L193.633,321.496L193.804,319.641L192.808,318.735L190.253,320.927L188.901,323.679L187.495,322.934L186.749,323.822L187.229,325.403L185.418,328.66L183.305,328.479L181.612,329.468L181.068,330.588L179.714,330.876L179.493,331.82L178.29,333.236L177.41,333.171L177.071,333.896L175.297,334.969L174.525,336.377L167.69,337.455L166.553,338.777L165.207,339.158L164.678,340.479L163.611,341.007L162.352,342.785L162.84,343.872L162.147,344.612L162.763,346.022L161.073,347.88L158.674,348.285L158.332,347.649L156.59,349.118L156.686,356.279L140.861,358.204L129.107,359.699L125.724,360.021L120.427,360.466L106.641,361.802L103.439,362.176L95.372,362.916L81.465,363.877L75.999,364.364L62.969,365.317L63.001,365.704L45.461,367.105L31.909,368.101L12,369.329L12.185,368.047L14.378,368.252L15.001,365.62L15.741,364.9L16.816,365.378L17.644,364.678L16.249,363.261L17.221,362.085L16.654,361.368L15.343,361.267L14.922,360.074L16.291,359.73L16.219,358.567L16.922,357.304L15.569,356.48L15.465,357.602L14.417,357.511L14.603,356.306L16.484,354.451L17.318,356.683L18.147,354.685L17.301,353.648L17.638,352.122L18.4,351.84L20.391,353.167L20.584,352.116L19.791,351.908L19.617,350.543L21.789,349.314L21.467,348.348L20.471,349.009L19.668,348.62L19.039,346.895L20.262,345.753L21.072,346.246L22.498,345.582L23.184,344.188L24.129,344.1L25.018,343.184L23.238,342.367L23.928,341.05L26.028,341.507L25.951,340.344L24.321,339.181Z" fill="#eee4d8" stroke="#311d03" stroke-width="0.9" vector-effect="non-scaling-stroke"></path>
    <path d="M337.822,238.435L338.477,238.693L338.049,239.5ZM344.709,233.796L345.222,233.791L345.409,232.291L353.942,229.407L353.078,231.696L352.399,234.447L351.894,235.275L351.368,234.834L350.179,235.281L349.055,237.597L348.458,239.585L348.251,242.972L348.687,244.575L347.499,248.229L348.153,248.458L347.169,251.085L346.612,253.3L345.929,253.74L346.323,255.166L345.883,257.541L344.742,259.483L343.407,259.716L343.928,260.532L343.209,260.818L342.671,258.707L341.546,257.49L340.885,256.015L340.672,254.205L341.096,252.551L340.861,250.242L341.116,247.405L341.032,245.408L341.918,243.124L342.796,240.018L342.282,239.228L343.911,238.425L344.784,236.512L344.712,235.785L342.958,235.608ZM337.243,235.325L336.58,236.633L336.097,235.57ZM202.002,272.547L203.029,273.154L201.658,274.249L201.867,275.082L203.202,275.46L203.713,277.742L205.001,278.362L205.785,279.607L207.301,279.458L208.4,279.948L208.493,280.563L210.268,281.552L213.084,280.939L214.057,280.029L214.106,279.235L215.96,278.503L216.41,276.991L216.994,276.35L218.091,277.36L220.646,278.928L223.029,277.215L226.007,276.034L227.405,275.68L228.796,274.223L227.869,273.243L228.243,271.844L230.148,272.535L230.589,273.146L233.708,270.775L235.092,269.315L236.052,268.921L237.171,270.523L240.826,267.316L241.034,266.519L239.937,266.597L239.884,265.765L241.234,264.646L242.058,263.457L240.503,262.824L239.996,261.831L240.824,260.668L240.505,259.775L241.763,256.621L243.794,253.545L245.059,251.99L245.662,250.547L245.896,248.929L246.424,248.051L245.803,247.394L246.135,245.865L247.837,243.443L248.731,242.737L248.045,241.698L249.467,239.165L250.186,237.462L249.653,235.845L250.262,232.556L253.007,233.314L254.887,235.853L258.894,236.54L260.76,233.734L261.357,229.994L261.912,228.393L262.57,228.301L262.326,226.476L263.335,224.135L263.75,222.243L267.067,224.301L268.09,220.689L269.628,218.536L269.797,219.454L270.497,218.693L271.405,216.786L272.072,217.216L272.911,215.4L272.349,215.082L273.877,212.479L274.411,212.195L275.412,210.373L274.431,209.608L275.063,208.066L274.507,207.774L275.859,204.726L275.241,204.552L275.553,203.545L275.016,202.908L275.042,201.268L281.228,204.818L288.553,208.926L289.386,204.145L289.89,202.859L290.923,202.579L292.338,202.962L293.543,202.699L294.252,203.748L296.324,204.475L296.004,205.833L295.368,206.434L295.577,207.924L296.451,208.095L297.132,208.991L299.958,208.827L302.274,209.475L302.437,210.711L303.171,211.013L304.821,210.841L305.739,211.634L307.895,213.129L308.373,215.492L308.728,217.667L307.394,218.597L306.963,219.398L307.275,220.525L305.755,221.385L304.591,221.063L304.855,222.385L303.962,225.549L303.899,226.936L304.446,228.835L305.97,230.091L308.263,229.235L308.62,228.476L309.844,228.229L310.628,227.066L311.517,227.68L311.408,229.659L313.289,230.97L313.542,232.215L316.71,233.13L318.765,232.762L319.484,233.355L319.865,232.721L321.875,232.544L322.433,233.593L323.948,234.312L324.914,235.673L326.058,235.832L327.573,236.945L329.334,237.185L332.156,238.393L332.094,240.128L330.991,240.996L331.397,243.744L331.88,244.41L331.221,245.767L332.413,246.126L331.009,247.215L328.118,246.125L327.355,246.999L326.647,246.484L326.431,245.444L324.935,243.61L323.205,243.12L322.365,242.368L321.316,242.266L319.055,240.005L318.095,239.91L317.534,238.834L316.312,238.29L316.303,239.085L319.063,240.876L321.299,243.434L322.658,243.789L322.871,244.407L324.26,244.49L325.587,246.757L326.772,247.914L329.264,247.501L330.031,248.294L332.712,248.367L331.713,249.345L331.828,250.301L332.942,250.279L333.155,249.651L334.033,250.552L335.034,253.255L334.854,255.677L333.031,254.392L331.057,253.613L330.536,254.834L331.652,255.634L332.523,256.908L333.341,257.107L331.649,258.097L330.18,258.509L330.883,259.395L332.646,258.735L332.884,260.698L333.98,260.151L334.476,260.867L335.577,261.166L336.336,262.304L336.107,264.921L335.695,264.61L334.463,265.345L333.397,266.468L332.207,264.917L329.479,263.869L328.081,262.968L328.161,261.681L326.711,260.101L324.936,260.705L324.403,261.476L323.335,260.478L321.787,260.504L321.336,259.987L319.778,261.23L320.86,261.883L321.813,261.477L323.372,261.502L324.902,262.644L325.659,262.541L326.019,260.932L327.305,263.816L327.739,265.499L329.665,265.604L332.174,267.253L332.6,268.885L334.824,268.314L335.429,267.473L335.687,268.292L336.494,268.414L335.787,266.286L337.167,265.837L338.401,266.344L341.502,266.641L342.768,265.656L343.741,265.74L345.099,268.841L346.858,272.175L347.994,273.813L349.089,276.069L337.236,278.585L327.209,280.661L324.606,281.14L324.658,281.394L315.785,283.155L293.668,287.449L287.48,288.715L264.048,292.949L249.74,295.356L245.692,295.983L236.005,297.025L232.905,297.631L224.839,298.521L220.191,299.168L213.046,299.845L213.612,299.025L207.101,299.875L206.947,300.579L194.197,302.391L189.057,303.199L175.79,305.003L175.35,304.931L168.759,305.835L165.956,306.098L166.541,305.316L169.165,303.691L170.945,303.507L174.06,301.732L176.723,300.457L178.058,300.171L178.052,298.864L179.119,296.626L181.547,296.188L183.523,294.973L183.867,293.747L183.404,292.268L184.294,291.281L185.295,291.089L186.498,289.899L186.188,287.692L188.121,286.242L189.535,284.758L191.227,283.444L194.179,281.998Z" fill="#d8c2ad" stroke="#311d03" stroke-width="0.9" vector-effect="non-scaling-stroke"></path>
    <path d="M185.836,352.125L193.332,348.502L194.01,348.956L196.206,347.078L198.531,345.519L199.066,345.574L200.688,344.635L201.323,344.78L202.163,343.298L202.737,344.236L204.64,343.437L220.908,341.774L229.989,340.79L234.764,340.378L235.151,341.706L234.744,343.028L235.259,343.497L237.54,341.22L241.968,345.726L242.18,349.231L257.557,346.96L263.957,346.058L269.211,345.179L278.142,351.548L281.342,354.029L292,361.624L301.616,368.532L300.523,368.945L297.632,370.82L295.589,372.929L293.1,376.562L291.893,378.856L291.488,380.111L290.356,381.838L289.556,384.424L289.21,389.053L289.723,390.405L289.327,391.736L288.311,393.15L286.475,394.552L286.12,397.16L284.579,397.169L283.155,397.839L282.012,397.017L280.751,398.103L280.15,399.859L280.551,400.602L281.212,400.225L281.359,401.064L280.125,401.803L278.736,403.224L278.171,404.685L275.426,406.703L274.377,405.887L273.436,406.232L273.487,407.061L275.085,407.364L274.9,408.941L272.914,410.642L272.467,411.766L271.56,411.789L269.529,412.708L268.275,414.463L267.667,414.095L264.856,416.919L264.058,416.502L262.845,417.436L262.541,416.701L261.391,416.917L261.212,418.045L262.894,419.939L262.582,421.926L259.995,423.972L258.386,424.758L258.038,423.743L256.182,422.999L255.294,423.718L255.243,424.537L256.374,424.746L257.865,426.046L256.797,427.918L254.81,429.781L254.007,429.91L252.763,431.86L253.295,432.323L252.475,432.35L250.222,430.855L249.308,431.444L247.296,430.875L246.601,429.366L246.853,428.647L245.603,427.094L246.317,425.832L245.477,423.979L245.137,424.138L243.382,421.671L243.602,420.748L241.234,419.002L241.143,418.416L238.82,418.098L237.565,417.039L237.847,415.924L237.302,414.755L236.739,414.633L237.004,413.416L236.524,412.654L236.188,410.485L235.333,410.225L234.963,409.002L233.651,407.532L233.829,405.753L231.983,404.913L230.344,403.648L229.554,403.794L226.959,402.751L226.08,401.708L226.098,400.634L225.148,400.908L223.841,400.007L224.078,399.187L221.3,397.461L221.53,396.59L221.029,395.646L221.481,394.455L221.038,393.894L219.621,393.426L217.687,391.282L216.056,390.556L214.995,390.66L213.712,389.855L213.475,388.845L212.533,387.911L211.955,386.402L209.052,384.263L206.323,383.298L204.397,381.692L203.607,381.779L202.278,379.33L200.882,378.274L199.941,376.657L198.808,376.189L197.953,374.533L197.77,373.227L196.625,372.029L196.185,370.785L195.034,370.162L194.544,368.558L193.621,367.015L192.883,366.804L190.508,367.55L188.331,366.516L185.971,364.122L184.472,364.142L181.587,362.389L181.107,360.783L181.711,360.023L181.5,359.111L183.387,356.115L185.829,354.007Z" fill="#eee4d8" stroke="#311d03" stroke-width="0.9" vector-effect="non-scaling-stroke"></path>
  </g>
  
    <g aria-label="The DMV, D.C. · Maryland · Virginia">
      <line x1="307.73" y1="212.06" x2="297.89" y2="212.06" stroke="#311d03" stroke-width="0.90"></line>
      <circle cx="307.73" cy="212.06" r="5.74" fill="#311d03"></circle>
      <circle cx="307.73" cy="212.06" r="1.97" fill="#f8f2e9"></circle>
      <rect x="184.73" y="196.48" width="113.16" height="31.16" fill="#311d03"></rect>
      <text x="193.75" y="208.78" fill="#f8f2e9" font-family="Arial, Helvetica, sans-serif" font-size="6.97" font-weight="600" letter-spacing="1.19">THE DMV</text>
      <text x="193.75" y="218.62" fill="#f8f2e9" font-family="Arial, Helvetica, sans-serif" font-size="4.43" font-weight="500" letter-spacing="0.66">D.C. · MARYLAND · VIRGINIA</text>
    </g>
  
    <g aria-label="North Carolina">
      <line x1="288.67" y1="311.84" x2="278.83" y2="311.84" stroke="#311d03" stroke-width="0.90"></line>
      <circle cx="288.67" cy="311.84" r="5.74" fill="#311d03"></circle>
      <circle cx="288.67" cy="311.84" r="1.97" fill="#f8f2e9"></circle>
      <rect x="170.59" y="299.54" width="108.24" height="24.60" fill="#311d03"></rect>
      <text x="179.61" y="315.12" fill="#f8f2e9" font-family="Arial, Helvetica, sans-serif" font-size="6.97" font-weight="600" letter-spacing="1.19">NORTH CAROLINA</text>
      
    </g>
</svg>